<?xml version="1.0" encoding="UTF-8"?>
<svg version="1.1" xmlns="http://www.w3.org/2000/svg" width="967" height="967">
<path d="M0 0 C3.83084349 2.61193874 6.65161815 5.67823629 8.75 9.875 C8.92455695 11.7865417 9.01715146 13.70604056 9.0625 15.625 C9.11857422 17.16414063 9.11857422 17.16414063 9.17578125 18.734375 C8.1951821 25.96741829 1.95820362 30.95302201 -2.98643494 35.87213135 C-4.16233282 37.05376755 -4.16233282 37.05376755 -5.36198622 38.2592752 C-7.98650084 40.89409757 -10.61809739 43.52172838 -13.24975586 46.14941406 C-15.13424416 48.03824995 -17.01834281 49.92746749 -18.9019928 51.81713867 C-23.48555663 56.4134366 -28.07456871 61.00425702 -32.66567462 65.59302023 C-36.39663478 69.32219623 -40.12582206 73.05313624 -43.85376167 76.78533173 C-44.38464546 77.3168107 -44.91552924 77.84828967 -45.46250041 78.39587407 C-46.5410108 79.47559622 -47.61952001 80.55531956 -48.69802804 81.63504407 C-58.80619383 91.75407968 -68.92086348 101.86659475 -79.03751469 111.97714588 C-88.29426198 121.22872013 -97.54276119 130.48848987 -106.78741639 139.7521458 C-116.28188116 149.26597499 -125.78187934 158.77424588 -135.28791147 168.27651763 C-140.62402354 173.61071609 -145.95790393 178.94710144 -151.28599358 184.28931427 C-155.81997618 188.83519358 -160.35915048 193.37580881 -164.90514582 197.90967634 C-167.22448364 200.22311448 -169.54051085 202.53970295 -171.85172653 204.86125946 C-174.35648868 207.37642095 -176.87026021 209.88221402 -179.38658142 212.38580322 C-180.4812355 213.49151873 -180.4812355 213.49151873 -181.5980038 214.61957192 C-182.2743042 215.28866578 -182.9506046 215.95775963 -183.64739895 216.64712906 C-184.22658248 217.22636761 -184.80576602 217.80560616 -185.40250057 218.40239739 C-190.46134767 222.43469711 -196.06475656 222.51040222 -202.25 221.875 C-207.88941313 219.89076205 -210.69649512 216.74898403 -213.5 211.5625 C-215.28036046 205.182875 -214.58817124 200.71119375 -211.59524298 195.01052713 C-209.12537344 191.08969387 -205.8929719 187.9694702 -202.60968018 184.72674561 C-201.83603205 183.94685752 -201.06238393 183.16696944 -200.26529193 182.36344838 C-197.68009619 179.76234543 -195.08089565 177.17571872 -192.48144531 174.58886719 C-190.62110213 172.72310193 -188.7615534 170.8565743 -186.90292358 168.98910522 C-182.38264526 164.45107385 -177.85166011 159.92388217 -173.31669763 155.40052983 C-169.63005962 151.72293854 -165.94736042 148.04144559 -162.26741791 144.35715485 C-161.74295102 143.83207502 -161.21848412 143.3069952 -160.67812429 142.76600386 C-159.61257735 141.69917797 -158.54703937 140.63234314 -157.48151025 139.56549945 C-147.49798501 129.57057783 -137.50225357 119.5879359 -127.50228199 109.60947266 C-118.92880432 101.05386511 -110.36586812 92.48782453 -101.81054688 83.9140625 C-91.86690472 73.94899701 -81.91678354 63.99047491 -71.9562881 54.04225278 C-70.89346542 52.98070425 -69.83065108 51.91914739 -68.76784515 50.85758209 C-68.24496985 50.33532389 -67.72209455 49.81306569 -67.18337454 49.27498148 C-63.50548777 45.60054322 -59.83225232 41.92149459 -56.16080475 38.24062347 C-51.68421577 33.75279688 -47.20053063 29.27220648 -42.7076979 24.8006396 C-40.41712303 22.52055144 -38.13092177 20.23637013 -35.85113907 17.94548416 C-33.37598504 15.45938974 -30.88882144 12.9859596 -28.39825439 10.51531982 C-27.32838095 9.43206205 -27.32838095 9.43206205 -26.23689389 8.32692027 C-18.62454464 0.83215363 -10.66292723 -3.69101327 0 0 Z " fill="#002DCB" transform="translate(821.25,137.125)"/>
<path d="M0 0 C4.94586526 2.29629459 7.30760518 5.31323865 10 10 C11.6249596 14.87487881 11.68742928 19.06533423 9.46315479 23.7238493 C6.86814389 28.68266799 3.23084751 32.32537312 -0.72297668 36.23091125 C-1.89675787 37.41405239 -1.89675787 37.41405239 -3.09425181 38.62109536 C-5.70941878 41.25217135 -8.33859545 43.86877171 -10.96801758 46.4855957 C-12.84968744 48.37268752 -14.73056304 50.26054189 -16.61051941 52.14933777 C-21.18259929 56.73917098 -25.76538698 61.31816504 -30.35215119 65.89331899 C-34.0802731 69.6123954 -37.80445789 73.33537219 -41.52588463 77.06114769 C-42.05619097 77.59206696 -42.5864973 78.12298623 -43.13287353 78.66999396 C-44.21026021 79.74865958 -45.28763792 80.82733414 -46.36500677 81.90601756 C-56.45914083 92.01154781 -66.56548142 102.10479883 -76.67606165 112.19387098 C-85.34707623 120.84701029 -94.00754266 129.51059054 -102.66040039 138.18188477 C-112.71573849 148.25863765 -122.77754482 158.32885868 -132.84973449 168.38876981 C-133.92405405 169.46181521 -134.99836528 170.53486895 -136.07266808 171.60793114 C-136.60121231 172.13585827 -137.12975655 172.6637854 -137.67431727 173.20771033 C-141.39475383 176.92469621 -145.11053485 180.64629718 -148.82453346 184.36971474 C-153.35129462 188.90770377 -157.88513285 193.43847721 -162.42814306 197.96020136 C-164.74492822 200.26648753 -167.05732125 202.57688779 -169.36331558 204.89397049 C-171.86510368 207.40667754 -174.37886892 209.9067568 -176.89607239 212.40400696 C-177.62001609 213.13687355 -178.3439598 213.86974014 -179.08984119 214.62481481 C-184.12135427 219.57917809 -188.25986817 222.52398322 -195.4375 223.4375 C-201.08351552 222.74412967 -205.20202147 220.65603285 -209.375 216.8125 C-212.39436424 211.58667727 -213.74520603 206.50914804 -212.1875 200.5625 C-206.93931816 188.10002162 -192.778103 177.62267585 -183.38232422 168.22119141 C-181.59908344 166.43331554 -179.81603815 164.64524467 -178.03317261 162.85699463 C-173.21359839 158.02437048 -168.39077354 153.19500489 -163.5668807 148.36669207 C-160.55123996 145.34827622 -157.53633205 142.32912911 -154.52154922 139.30985641 C-146.16078795 130.93692273 -137.79909516 122.56492181 -129.43394279 114.19637489 C-128.63365046 113.39575321 -128.63365046 113.39575321 -127.81719059 112.57895734 C-127.01511147 111.7765508 -127.01511147 111.7765508 -126.19682872 110.95793402 C-125.11347671 109.87413856 -124.03012625 108.79034154 -122.94677734 107.70654297 C-122.40941114 107.16895534 -121.87204494 106.63136771 -121.31839491 106.07748954 C-112.59487184 97.35001111 -103.87813463 88.61578837 -95.16426574 79.87867184 C-86.20067391 70.8913604 -77.23146086 61.90969108 -68.25658429 52.93364847 C-63.22425949 47.90040806 -58.19436662 42.86479014 -53.170681 37.82292557 C-48.45136145 33.08658681 -43.72440784 28.3580031 -38.99217606 23.63455963 C-37.25736684 21.90052194 -35.52512013 20.16391622 -33.79563904 18.42456436 C-31.43418519 16.05042474 -29.06365994 13.68572486 -26.69064331 11.32315063 C-26.00901969 10.63347061 -25.32739607 9.94379058 -24.62511718 9.23321116 C-17.12602369 1.81104878 -10.79336804 -1.47114057 0 0 Z " fill="#002DCB" transform="translate(350,606)"/>
<path d="M0 0 C8.10213292 4.67615994 12.33011369 15.64392802 16.8125 23.5 C17.80492138 25.2298456 18.79734765 26.95968843 19.79006958 28.68936157 C20.81264091 30.47189872 21.83390134 32.25518197 22.85498047 34.03857422 C26.01469911 39.55439788 29.19611722 45.05770746 32.375 50.5625 C33.62509875 52.72910969 34.87509851 54.8957765 36.125 57.0625 C37.053125 58.67125 37.053125 58.67125 38 60.3125 C88.625 148.0625 88.625 148.0625 90.50024414 151.31298828 C91.74935518 153.47807071 92.99854129 155.64310982 94.24780273 157.80810547 C97.38702309 163.24865706 100.52490563 168.68997216 103.66015625 174.1328125 C109.16557611 183.68733861 114.67729965 193.23744248 120.24707031 202.75463867 C125.61656343 211.9298909 130.94111658 221.128704 136.1875 230.375 C137.024021 231.843927 137.024021 231.843927 137.87744141 233.3425293 C138.38839355 234.24656494 138.8993457 235.15060059 139.42578125 236.08203125 C140.10120972 237.27469604 140.10120972 237.27469604 140.7902832 238.49145508 C143.03082592 242.76931324 143.47517941 246.82023733 142.875 251.5625 C141.02837674 257.3978295 138.35925857 260.64534119 132.875 263.5625 C127.62075615 265.31391462 122.83073723 265.27041687 117.75 263.125 C109.64786708 258.44884006 105.41988631 247.48107198 100.9375 239.625 C99.94507862 237.8951544 98.95265235 236.16531157 97.95993042 234.43563843 C96.93735909 232.65310128 95.91609866 230.86981803 94.89501953 229.08642578 C91.735301 223.57060231 88.55393132 218.06726433 85.375 212.5625 C84.1261843 210.39850547 82.8774867 208.23444277 81.62890625 206.0703125 C80.70102295 204.4620459 80.70102295 204.4620459 79.75439453 202.82128906 C77.86519834 199.54550434 75.97735891 196.26894107 74.08984375 192.9921875 C68.06752671 182.54043801 62.02830663 172.09950452 55.9375 161.6875 C50.51578822 152.41750223 45.17295085 143.10418248 39.85577393 133.77404785 C34.65454871 124.6496716 29.39472122 115.56117226 24.09155273 106.49560547 C17.93998715 95.97619315 11.85714287 85.41750804 5.77490234 74.85791016 C3.86972482 71.55335012 1.96083012 68.25096521 0.05078125 64.94921875 C-26.05791434 19.8010534 -26.05791434 19.8010534 -25.125 11.5625 C-23.33079117 5.70825291 -20.60060475 2.47505572 -15.125 -0.4375 C-9.87075615 -2.18891462 -5.08073723 -2.14541687 0 0 Z " fill="#002DCB" transform="translate(591.125,638.4375)"/>
<path d="M0 0 C4.71372937 2.63856166 6.99572627 6.2996788 8.6875 11.375 C10.83650382 25.61215032 -3.55522084 42.4995139 -10.40673828 54.12792969 C-13.55081054 59.48485526 -16.65047616 64.86721436 -19.75 70.25 C-20.37197266 71.32926758 -20.99394531 72.40853516 -21.63476562 73.52050781 C-22.8971694 75.71114966 -24.15937623 77.901905 -25.42138672 80.09277344 C-28.54930148 85.52159942 -31.68108448 90.94819281 -34.8125 96.375 C-36.06251879 98.54165583 -37.31251878 100.7083225 -38.5625 102.875 C-56.0625 133.20833333 -73.5625 163.54166667 -91.0625 193.875 C-91.6814917 194.9479834 -92.3004834 196.0209668 -92.93823242 197.12646484 C-94.18556548 199.28837884 -95.4331233 201.45016317 -96.6809082 203.61181641 C-99.84858832 209.10014585 -103.01206761 214.59082533 -106.16796875 220.0859375 C-109.27953383 225.50205852 -112.40489766 230.90999462 -115.54003906 236.3125 C-116.7109885 238.33569418 -117.87710214 240.36169575 -119.03808594 242.390625 C-120.63773219 245.18463643 -122.25415183 247.96824981 -123.875 250.75 C-124.3393042 251.57032715 -124.8036084 252.3906543 -125.28198242 253.23583984 C-128.697557 259.03680664 -131.77499521 262.19583174 -138.3125 264.375 C-144.595066 264.90742085 -149.13218006 264.13101912 -154.3125 260.375 C-158.24344947 255.43611477 -159.81675753 251.16804129 -159.70703125 244.93359375 C-158.91908473 239.82364355 -155.93946072 235.74271782 -153.3125 231.375 C-152.20421685 229.39153739 -151.11542604 227.39799592 -150.02612305 225.40405273 C-144.54634005 215.39581499 -138.78089039 205.55635583 -133.015625 195.7109375 C-129.27615411 189.32218008 -125.57124966 182.91383924 -121.875 176.5 C-121.25278564 175.42041016 -120.63057129 174.34082031 -119.98950195 173.22851562 C-118.72738483 171.0381748 -117.46542215 168.84774498 -116.20361328 166.65722656 C-113.07569852 161.22840058 -109.94391552 155.80180719 -106.8125 150.375 C-105.56248121 148.20834417 -104.31248122 146.0416775 -103.0625 143.875 C-85.5625 113.54166667 -68.0625 83.20833333 -50.5625 52.875 C-49.6331665 51.26383301 -49.6331665 51.26383301 -48.68505859 49.62011719 C-47.44394907 47.46929219 -46.2020958 45.31889618 -44.95947266 43.16894531 C-42.04034993 38.11629294 -39.12872107 33.05976714 -36.24395752 27.98742676 C-35.22112368 26.18977741 -34.19589067 24.39351794 -33.16992188 22.59765625 C-31.88257264 20.34257552 -30.59975195 18.08490135 -29.32226562 15.82421875 C-22.65860902 4.17570521 -14.69229928 -6.53903078 0 0 Z " fill="#002DCB" transform="translate(393.3125,638.625)"/>
<path d="M0 0 C5.1988371 2.90666689 7.97047731 6.48563764 9.70703125 12.1640625 C12.32495802 25.96767638 -2.75616481 43.66276759 -9.38720703 54.91699219 C-12.53127929 60.27391776 -15.63094491 65.65627686 -18.73046875 71.0390625 C-19.35244141 72.11833008 -19.97441406 73.19759766 -20.61523438 74.30957031 C-21.87763815 76.50021216 -23.13984498 78.6909675 -24.40185547 80.88183594 C-27.52977023 86.31066192 -30.66155323 91.73725531 -33.79296875 97.1640625 C-35.04298754 99.33071833 -36.29298753 101.497385 -37.54296875 103.6640625 C-55.04296875 133.99739583 -72.54296875 164.33072917 -90.04296875 194.6640625 C-90.66212158 195.7372876 -91.28127441 196.8105127 -91.91918945 197.91625977 C-93.16502645 200.07565645 -94.41095693 202.23499919 -95.65698242 204.39428711 C-98.84645828 209.92173847 -102.0341376 215.45021371 -105.21875 220.98046875 C-108.34349558 226.40644707 -111.47565228 231.82809677 -114.61083984 237.24804688 C-116.17550452 239.9604351 -117.72965823 242.67855752 -119.28125 245.3984375 C-120.1598559 246.92465211 -121.03873945 248.45070693 -121.91796875 249.9765625 C-122.29542236 250.6456665 -122.67287598 251.31477051 -123.06176758 252.00415039 C-126.86091734 258.55479261 -130.91825572 262.98791767 -138.29296875 265.1640625 C-143.22140729 265.35963546 -147.18822662 264.67551719 -151.66796875 262.6015625 C-156.14047155 258.44852419 -158.45373573 253.92363435 -158.85546875 247.7890625 C-158.26516231 238.58215274 -151.49786375 229.910056 -146.91796875 222.1640625 C-145.66869353 220.03679726 -144.420016 217.90918092 -143.171875 215.78125 C-142.53137207 214.69038086 -141.89086914 213.59951172 -141.23095703 212.47558594 C-138.08154662 207.09405371 -134.96777568 201.69211226 -131.85546875 196.2890625 C-130.92275146 194.67064453 -130.92275146 194.67064453 -129.97119141 193.01953125 C-128.70864352 190.82855314 -127.44627387 188.63747231 -126.18408203 186.44628906 C-123.05616727 181.01746308 -119.92438427 175.59086969 -116.79296875 170.1640625 C-115.54294996 167.99740667 -114.29294997 165.83074 -113.04296875 163.6640625 C-95.54296875 133.33072917 -78.04296875 102.99739583 -60.54296875 72.6640625 C-59.92405762 71.59124023 -59.30514648 70.51841797 -58.66748047 69.41308594 C-57.41925841 67.24958774 -56.17088636 65.08617607 -54.92236328 62.92285156 C-51.76891619 57.45841233 -48.61820779 51.99242605 -45.47265625 46.5234375 C-42.36197688 41.11586145 -39.23972717 35.71508443 -36.11279297 30.31689453 C-34.28838361 27.15611879 -32.47973554 23.9866697 -30.671875 20.81640625 C-29.52529202 18.82780637 -28.3781811 16.83951078 -27.23046875 14.8515625 C-26.7185498 13.94438477 -26.20663086 13.03720703 -25.67919922 12.10253906 C-19.96893114 2.28290727 -11.90505399 -4.34017301 0 0 Z " fill="#002DCB" transform="translate(724.29296875,62.8359375)"/>
<path d="M0 0 C7.52704829 5.25657508 11.75270177 15.72733346 16.1875 23.5 C17.17992138 25.2298456 18.17234765 26.95968843 19.16506958 28.68936157 C20.18764091 30.47189872 21.20890134 32.25518197 22.22998047 34.03857422 C25.38969911 39.55439788 28.57111722 45.05770746 31.75 50.5625 C33.00009875 52.72910969 34.25009851 54.8957765 35.5 57.0625 C36.428125 58.67125 36.428125 58.67125 37.375 60.3125 C58 96.0625 58 96.0625 59.87524414 99.31298828 C61.12435518 101.47807071 62.37354129 103.64310982 63.62280273 105.80810547 C66.76202309 111.24865706 69.89990563 116.68997216 73.03515625 122.1328125 C79.05747329 132.58456199 85.09669337 143.02549548 91.1875 153.4375 C96.60859532 162.70644376 101.95178873 172.01819272 107.26721191 181.34793091 C111.94234349 189.5521824 116.66457589 197.72713249 121.4375 205.875 C126.199257 214.01162756 130.91058471 222.17502464 135.5625 230.375 C136.12026123 231.3544458 136.67802246 232.3338916 137.25268555 233.34301758 C137.76355713 234.24689209 138.27442871 235.1507666 138.80078125 236.08203125 C139.47620972 237.27469604 139.47620972 237.27469604 140.1652832 238.49145508 C142.93853958 243.78642105 142.87876586 248.45428506 141.1875 254.125 C138.40564448 259.06055012 135.43912942 262.63277009 129.8515625 264.26171875 C124.11484074 265.08251125 119.20812882 264.6655852 114.25 261.5625 C109.04367956 256.05662555 105.49513524 249.03869457 101.81808472 242.480896 C100.78414586 240.63693221 99.74366858 238.79679579 98.70141602 236.95751953 C97.61699961 235.04374596 96.53293691 233.12978384 95.45085144 231.21469116 C91.90126255 224.93353716 88.29908191 218.68319326 84.6875 212.4375 C83.44659564 210.28907344 82.20571023 208.14063594 80.96484375 205.9921875 C80.35237793 204.93225586 79.73991211 203.87232422 79.10888672 202.78027344 C75.98675395 197.37579355 72.86858796 191.96902588 69.75 186.5625 C68.50001878 184.3958225 67.25001879 182.22915583 66 180.0625 C58.5 167.0625 58.5 167.0625 56.62475586 163.81201172 C55.37564482 161.64692929 54.12645871 159.48189018 52.87719727 157.31689453 C49.73797691 151.87634294 46.60009437 146.43502784 43.46484375 140.9921875 C37.44252671 130.54043801 31.40330663 120.09950452 25.3125 109.6875 C19.89140468 100.41855624 14.54821127 91.10680728 9.23278809 81.77706909 C4.55765819 73.57282054 -0.16428506 65.39769537 -4.9375 57.25 C-26.7663801 19.97813231 -26.7663801 19.97813231 -25.75 10.5625 C-24.06605284 5.70284814 -20.99991462 2.39577641 -16.75 -0.4375 C-11.37679095 -2.22856968 -5.19097998 -2.54914196 0 0 Z " fill="#002DCB" transform="translate(259.75,63.4375)"/>
<path d="M0 0 C1.49720581 0.87241333 1.49720581 0.87241333 3.0246582 1.76245117 C6.17050422 3.59881881 9.30385131 5.45541422 12.4375 7.3125 C15.35506093 9.01867034 18.27599704 10.71895752 21.19702148 12.41918945 C23.16654034 13.56661114 25.13478217 14.71622734 27.10180664 15.86791992 C34.84983181 20.40354692 42.63689098 24.86826617 50.4375 29.3125 C60.15884099 34.85218899 69.84645092 40.44625063 79.50439453 46.09594727 C90.02834625 52.25016742 100.59130137 58.33619996 111.15527344 64.42138672 C116.58409942 67.54930148 122.01069281 70.68108448 127.4375 73.8125 C129.60415583 75.06251879 131.7708225 76.31251878 133.9375 77.5625 C153.4375 88.8125 153.4375 88.8125 172.9375 100.0625 C174.01136963 100.6819751 175.08523926 101.3014502 176.19165039 101.93969727 C178.34471037 103.18197806 180.49754478 104.42464988 182.65014648 105.66772461 C187.67851461 108.57086112 192.70889814 111.47028867 197.74771118 114.35525513 C199.52182545 115.37127184 201.29519919 116.38856928 203.06835938 117.40625 C205.28565314 118.67832292 207.50431075 119.94802285 209.72460938 121.21484375 C229.5032416 132.57461976 229.5032416 132.57461976 231.4375 139.3125 C232.17829398 144.66181233 232.15021735 148.86066837 229.75 153.75 C226.50466696 157.34617985 223.17730694 160.97953735 218.1875 161.5859375 C217.28 161.61945313 216.3725 161.65296875 215.4375 161.6875 C214.550625 161.73648438 213.66375 161.78546875 212.75 161.8359375 C204.01738379 160.45601937 195.94257298 154.37494836 188.4375 149.9375 C186.31023476 148.68822478 184.18261842 147.43954725 182.0546875 146.19140625 C180.96381836 145.55090332 179.87294922 144.91040039 178.74902344 144.25048828 C173.36749121 141.10107787 167.96554976 137.98730693 162.5625 134.875 C161.48355469 134.25318848 160.40460938 133.63137695 159.29296875 132.99072266 C157.10199064 131.72817477 154.91090981 130.46580512 152.71972656 129.20361328 C147.29090058 126.07569852 141.86430719 122.94391552 136.4375 119.8125 C134.27084417 118.56248121 132.1041775 117.31248122 129.9375 116.0625 C99.60416667 98.5625 69.27083333 81.0625 38.9375 63.5625 C37.86467773 62.94358887 36.79185547 62.32467773 35.68652344 61.68701172 C33.52302524 60.43878966 31.35961357 59.19041761 29.19628906 57.94189453 C23.73184983 54.78844744 18.26586355 51.63773904 12.796875 48.4921875 C7.39111086 45.38238146 1.99133351 42.26238551 -3.40527344 39.13671875 C-5.52601769 37.9113707 -7.64910625 36.69007185 -9.77441406 35.47265625 C-12.83408452 33.71996544 -15.88638549 31.95503168 -18.9375 30.1875 C-19.85305664 29.66720215 -20.76861328 29.1469043 -21.71191406 28.61083984 C-27.00878216 25.5221781 -31.15249701 22.87585483 -33.49609375 16.953125 C-34.80415336 10.74744685 -34.72994955 5.93611219 -31.5625 0.3125 C-22.25777718 -10.87499665 -10.48266605 -6.2925082 0 0 Z " fill="#002DCB" transform="translate(97.5625,238.6875)"/>
<path d="M0 0 C2.9375 2.3125 2.9375 2.3125 5 5 C5.598125 5.70125 6.19625 6.4025 6.8125 7.125 C8.90042779 12.17998307 9.27413243 17.73516745 7.26245117 22.88989258 C3.69673419 29.67826445 -2.12679848 32.533667 -8.6875 36.0625 C-10.44454204 37.04093126 -12.20156803 38.01939293 -13.95755005 38.99972534 C-15.7723548 40.00982616 -17.59159752 41.01154559 -19.41162109 42.01220703 C-24.99003012 45.08933488 -30.49032699 48.30201331 -36 51.5 C-38.16630568 52.7506255 -40.33297355 54.00062384 -42.5 55.25 C-43.5725 55.86875 -44.645 56.4875 -45.75 57.125 C-81.5 77.75 -81.5 77.75 -84.75048828 79.62524414 C-86.91557071 80.87435518 -89.08060982 82.12354129 -91.24560547 83.37280273 C-96.68615706 86.51202309 -102.12747216 89.64990563 -107.5703125 92.78515625 C-118.02206199 98.80747329 -128.46299548 104.84669337 -138.875 110.9375 C-148.14499777 116.35921178 -157.45831752 121.70204915 -166.78845215 127.01922607 C-174.92570095 131.65775286 -183.03966883 136.33386327 -191.125 141.0625 C-199.20496349 145.78727056 -207.29085131 150.50132371 -215.39398193 155.18624878 C-217.07993338 156.16143267 -218.76483498 157.13843089 -220.44970703 158.11547852 C-221.47950684 158.71030029 -222.50930664 159.30512207 -223.5703125 159.91796875 C-224.47539551 160.44156982 -225.38047852 160.9651709 -226.31298828 161.50463867 C-233.26478273 165.37341398 -238.02522408 167.03162072 -246 166 C-250.02037616 164.69189967 -252.57195281 162.48436918 -255.375 159.3125 C-258.05686159 153.84562829 -258.81251229 148.70035047 -257 142.8125 C-253.16977398 134.51731233 -244.21919314 130.64389406 -236.5625 126.5 C-234.31149041 125.26094695 -232.06151509 124.02001335 -229.8125 122.77734375 C-228.67425781 122.14940918 -227.53601563 121.52147461 -226.36328125 120.87451172 C-221.22099449 118.0084782 -216.13935338 115.04249329 -211.0625 112.0625 C-209.07170232 110.89568362 -207.08081612 109.72901828 -205.08984375 108.5625 C-204.0932373 107.97855469 -203.09663086 107.39460937 -202.06982422 106.79296875 C-196.7667275 103.69562962 -191.44605065 100.62886142 -186.125 97.5625 C-185.04484619 96.93996338 -183.96469238 96.31742676 -182.85180664 95.67602539 C-180.66203666 94.41423174 -178.47217645 93.15259466 -176.28222656 91.89111328 C-170.85340058 88.76319852 -165.42680719 85.63141552 -160 82.5 C-157.83334417 81.24998121 -155.6666775 79.99998122 -153.5 78.75 C-152.4275 78.13125 -151.355 77.5125 -150.25 76.875 C-121 60 -91.75 43.125 -62.5 26.25 C-61.42596924 25.63020264 -60.35193848 25.01040527 -59.24536133 24.37182617 C-57.09473186 23.1314082 -54.94353393 21.89197528 -52.79174805 20.65356445 C-47.72971063 17.73863905 -42.67389688 14.81429426 -37.63821411 11.85409546 C-35.26915598 10.46228131 -32.89679767 9.07614773 -30.52416992 7.69042969 C-28.85857431 6.71449661 -27.19776641 5.73040687 -25.53710938 4.74609375 C-16.69321701 -0.4133108 -10.13980821 -3.64964234 0 0 Z " fill="#002DCB" transform="translate(321,566)"/>
<path d="M0 0 C1.23864342 0.7258558 2.47807844 1.45036229 3.71826172 2.17358398 C6.23864242 3.64632184 8.75420505 5.12678003 11.265625 6.61474609 C15.52540022 9.13811998 19.80507255 11.62689611 24.08496094 14.1159668 C27.02266832 15.82569281 29.95688542 17.54128856 32.890625 19.2578125 C42.43322933 24.83429156 52.01557793 30.34211491 61.59277344 35.85888672 C67.02159942 38.98680148 72.44819281 42.11858448 77.875 45.25 C80.04165583 46.50001879 82.2083225 47.75001878 84.375 49 C114.70833333 66.5 145.04166667 84 175.375 101.5 C176.44919189 102.1194751 177.52338379 102.7389502 178.63012695 103.37719727 C180.78058381 104.61834952 182.93017227 105.8610077 185.07885742 107.10522461 C190.13308765 110.02949895 195.19450721 112.93811543 200.2883606 115.79275513 C202.68256874 117.13573617 205.07179328 118.48744853 207.46069336 119.83984375 C209.1402399 120.78587986 210.82687081 121.71930405 212.51367188 122.65234375 C218.73320821 126.17949101 223.59730083 129.19460165 226.875 135.75 C227.55743922 143.12258109 227.64168165 148.88331489 222.875 154.75 C218.02562497 158.60970666 213.91796495 159.51759117 207.73828125 159.25 C202.44371803 158.3254378 198.3986828 155.5312272 193.875 152.75 C191.89477511 151.63827648 189.90212463 150.55102067 187.90844727 149.46362305 C177.89464698 143.99164314 168.05723844 138.21890722 158.2109375 132.453125 C151.82218008 128.71365411 145.41383924 125.00874966 139 121.3125 C137.92041016 120.69028564 136.84082031 120.06807129 135.72851562 119.42700195 C133.5381748 118.16488483 131.34774498 116.90292215 129.15722656 115.64111328 C123.72840058 112.51319852 118.30180719 109.38141552 112.875 106.25 C110.70834417 104.99998121 108.5416775 103.74998122 106.375 102.5 C76.04166667 85 45.70833333 67.5 15.375 50 C14.30080811 49.38036377 13.22661621 48.76072754 12.11987305 48.12231445 C9.96998131 46.88181188 7.82040041 45.64077044 5.67114258 44.39916992 C0.60703521 41.47456618 -4.46000902 38.55546233 -9.5383606 35.65567017 C-11.93037117 34.28936128 -14.32059708 32.91994714 -16.71069336 31.55029297 C-18.39328963 30.58778986 -20.07844836 29.62977069 -21.76367188 28.671875 C-22.78654297 28.08535156 -23.80941406 27.49882813 -24.86328125 26.89453125 C-25.76087158 26.38253174 -26.65846191 25.87053223 -27.58325195 25.34301758 C-32.64848455 22.1684289 -36.13441197 19.5122285 -38.125 13.75 C-39.00759404 6.62466765 -38.56443118 1.47452968 -34.125 -4.25 C-22.45180726 -13.68790051 -11.22393851 -6.70758899 0 0 Z " fill="#002DCB" transform="translate(677.125,573.25)"/>
<path d="M0 0 C3.92735809 3.21660651 5.81628183 6.26171612 6.4375 11.39453125 C6.6503689 16.25725518 6.66256118 21.01986154 3.77734375 25.16796875 C0.21272446 28.71573405 -4.19844621 31.04464686 -8.54638672 33.49560547 C-11.24198261 35.02003871 -13.91984683 36.57344293 -16.59765625 38.12890625 C-21.61357466 41.03852626 -26.63792428 43.93310823 -31.66668701 46.82046509 C-37.74136217 50.30874442 -43.80828436 53.81040277 -49.875 57.3125 C-52.04163141 58.56256112 -54.20829814 59.812561 -56.375 61.0625 C-57.4475 61.68125 -58.52 62.3 -59.625 62.9375 C-173.375 128.5625 -173.375 128.5625 -176.62768555 130.43896484 C-178.78549803 131.68391282 -180.94321353 132.9290289 -183.10083008 134.17431641 C-188.65216592 137.37802651 -194.20536541 140.5784363 -199.76171875 143.7734375 C-202.02877735 145.07789646 -204.29570655 146.38258033 -206.5625 147.6875 C-207.64668213 148.31156738 -208.73086426 148.93563477 -209.84790039 149.57861328 C-217.02658862 153.72039826 -224.14929228 157.94162983 -231.21484375 162.2734375 C-236.60790435 165.39365171 -241.78579649 165.4086458 -247.875 164.8125 C-252.08695588 163.53428304 -254.53607067 161.22964379 -257.3125 157.8125 C-259.82398828 152.77865121 -259.59875847 147.27497184 -258.875 141.8125 C-254.92248174 132.53267452 -242.28321375 127.63675794 -233.9375 122.875 C-232.2076544 121.88257862 -230.47781157 120.89015235 -228.74813843 119.89743042 C-226.96560128 118.87485909 -225.18231803 117.85359866 -223.39892578 116.83251953 C-217.88310212 113.67280089 -212.37979254 110.49138278 -206.875 107.3125 C-204.70839031 106.06240125 -202.5417235 104.81240149 -200.375 103.5625 C-199.3025 102.94375 -198.23 102.325 -197.125 101.6875 C-159.20833333 79.8125 -121.29166667 57.9375 -83.375 36.0625 C-82.30209717 35.4435083 -81.22919434 34.8245166 -80.1237793 34.18676758 C-77.96121417 32.9391526 -75.79861661 31.69159384 -73.63598633 30.4440918 C-68.15629629 27.28306551 -62.67720642 24.12100691 -57.19921875 20.95703125 C-51.79654302 17.83666353 -46.39113739 14.72106167 -40.98486328 11.60693359 C-37.89198316 9.82229951 -34.80321042 8.03071204 -31.71484375 6.23828125 C-29.81000216 5.13783677 -27.9050595 4.03756719 -26 2.9375 C-25.13205811 2.43130127 -24.26411621 1.92510254 -23.36987305 1.40356445 C-22.56976807 0.94296631 -21.76966309 0.48236816 -20.9453125 0.0078125 C-20.25195801 -0.39421387 -19.55860352 -0.79624023 -18.84423828 -1.21044922 C-12.69510971 -4.2613806 -5.72500445 -3.78020464 0 0 Z " fill="#002DCB" transform="translate(897.875,235.1875)"/>
<path d="M0 0 C4.86837992 4.18907109 6.93105085 7.79283654 7.61625862 14.20526505 C7.72657647 17.46833533 7.00949765 20.30272026 6.16577148 23.44482422 C5.99190226 24.10841068 5.81803303 24.77199715 5.63889503 25.45569229 C5.06334613 27.63843501 4.4673805 29.81502735 3.87109375 31.9921875 C3.45530054 33.55213997 3.04081256 35.11244086 2.62754822 36.67306519 C1.54358602 40.75322454 0.44272245 44.828633 -0.66165924 48.90330505 C-1.68657416 52.69719752 -2.69440519 56.49559195 -3.70263672 60.29394531 C-5.97498713 68.84205204 -8.27234566 77.3833399 -10.57310867 85.92383575 C-11.74476845 90.27484331 -12.91419846 94.62645008 -14.08374023 98.97802734 C-14.57398636 100.80203341 -15.06423603 102.62603853 -15.55448914 104.45004272 C-15.80098394 105.36714397 -16.04747875 106.28424522 -16.3014431 107.22913742 C-17.05935496 110.04861323 -17.81752662 112.86801906 -18.57575989 115.68740845 C-22.41555547 129.9664744 -26.24496589 144.24830701 -30.0703125 158.53125 C-30.64349395 160.67113369 -31.21668019 162.81101609 -31.78987122 164.95089722 C-34.01883427 173.27251617 -36.2477237 181.59415475 -38.47555542 189.91607666 C-41.28974741 200.42754622 -44.10781471 210.93795623 -46.93305302 221.44646263 C-48.61955842 227.72265412 -50.29691029 234.00123807 -51.97021198 240.28096199 C-53.15597774 244.7260264 -54.34714714 249.16963178 -55.53941154 253.612957 C-56.10946652 255.74206523 -56.67726519 257.87177899 -57.24267769 260.00212479 C-58.0268271 262.95536341 -58.81900715 265.90633865 -59.61303711 268.85693359 C-59.84239141 269.72854504 -60.07174572 270.60015648 -60.30805016 271.49818039 C-62.20707762 278.50089059 -64.02960741 284.12390494 -70.3125 288.3125 C-74.48543691 290.56814158 -78.6538949 290.99885066 -83.3125 290.3125 C-89.14841263 288.44839724 -92.38949328 285.80775263 -95.3125 280.3125 C-97.53294114 273.65117659 -96.11603767 267.41816682 -94.29077148 260.86474609 C-94.07361638 260.05372783 -93.85646128 259.24270956 -93.63272572 258.40711498 C-92.90912479 255.71407454 -92.17136559 253.02512709 -91.43359375 250.3359375 C-90.91306023 248.40949909 -90.39344953 246.48281112 -89.87469482 244.55589294 C-88.76113896 240.42699861 -87.6413901 236.29985405 -86.51669312 232.17398071 C-84.72896128 225.61561091 -82.95476927 219.05362688 -81.18286133 212.4909668 C-79.35706245 205.73127136 -77.53030978 198.97184101 -75.69865417 192.21372986 C-70.62628729 173.49845926 -65.60811927 154.76907018 -60.61078453 136.03364563 C-58.9746041 129.90024797 -57.33446312 123.76792025 -55.69189453 117.63623047 C-55.22553448 115.89512142 -54.75917502 114.1540122 -54.29281616 112.41290283 C-54.06243023 111.5527784 -53.8320443 110.69265396 -53.59467697 109.80646515 C-53.36491795 108.94865196 -53.13515892 108.09083878 -52.8984375 107.20703125 C-52.66993732 106.3539312 -52.44143715 105.50083115 -52.20601273 104.62187958 C-49.31988423 93.84403402 -46.44757126 83.0626342 -43.5913763 72.27681637 C-41.64155358 64.91443509 -39.68457402 57.55398107 -37.7225275 50.19484806 C-36.34299625 45.0184895 -34.97288174 39.83976501 -33.60999298 34.65900135 C-32.77389094 31.49033595 -31.92846914 28.32421426 -31.08034897 25.15874672 C-30.69119762 23.69877662 -30.30588952 22.23777568 -29.92477798 20.77568626 C-29.4032933 18.77722564 -28.86804458 16.78294064 -28.3293457 14.7890625 C-28.03453812 13.67611816 -27.73973053 12.56317383 -27.43598938 11.41650391 C-25.19068148 5.21311239 -22.03914587 1.5337383 -16.3125 -1.6875 C-10.66980203 -3.5069822 -5.21087589 -2.65459715 0 0 Z " fill="#002DCB" transform="translate(614.3125,17.6875)"/>
<path d="M0 0 C6.85181518 6.05509248 8.37234904 14.56104298 10.609375 23.08203125 C10.98483999 24.48242043 11.36117804 25.88257578 11.73831177 27.28251648 C12.76619789 31.10803436 13.78174467 34.93673376 14.79524994 38.76608276 C15.88637302 42.87984528 16.98904683 46.99051123 18.09033203 51.1015625 C20.22865125 59.09097344 22.35656729 67.08311842 24.48078728 75.07628822 C26.92364023 84.26706654 29.37615157 93.45525758 31.82946014 102.64324951 C35.08187614 114.8245447 38.33203333 127.00643898 41.57617188 139.18994141 C49.5927262 169.29517679 57.65410765 199.3882397 65.73388672 229.4765625 C65.95570555 230.30261395 66.17752438 231.12866541 66.40606499 231.97974873 C67.62063898 236.5026673 68.83534509 241.02555012 70.05117607 245.54813099 C70.40870795 246.88003029 70.7653576 248.21216677 71.12104988 249.54455853 C72.01203513 252.87991756 72.91799916 256.21007681 73.84875488 259.53457642 C74.03590939 260.21200551 74.22306389 260.8894346 74.41588974 261.58739185 C74.93012773 263.44753498 75.45077166 265.30590382 75.97186279 267.16413879 C77.19626735 272.65769483 76.75235471 276.90902067 74.5 282.125 C71.07012721 286.38277312 67.32080518 289.94548136 61.671875 290.61328125 C55.73997496 290.81031989 52.51256818 289.87553966 47.6875 286.375 C43.36098085 282.0047467 42.15233769 277.23406579 40.57421875 271.4609375 C40.28117355 270.422789 39.98812836 269.3846405 39.686203 268.31503296 C38.66770782 264.6733849 37.67295888 261.02568839 36.6875 257.375 C36.50471748 256.69840836 36.32193497 256.02181671 36.13361359 255.32472229 C33.34970808 245.00357265 30.62150141 234.66782241 27.90231323 224.32946777 C25.47207189 215.0897842 23.02913604 205.85345177 20.5859375 196.6171875 C20.33766394 195.67832199 20.08939037 194.73945648 19.83359337 193.7721405 C15.23015559 176.36866336 10.55380238 158.98555825 5.84155273 141.61126709 C-1.09290828 116.04350449 -8.01109433 90.47107948 -14.85682201 64.87940598 C-16.03650239 60.46959271 -17.21867358 56.06048943 -18.40774536 51.65319824 C-19.51563583 47.5463535 -20.61600064 43.43756518 -21.7107048 39.32718658 C-22.11315123 37.82112226 -22.5182266 36.31575746 -22.92619705 34.81118011 C-28.63596794 13.73526776 -28.63596794 13.73526776 -25.6875 7 C-23.11812576 2.63558347 -20.12735944 0.24118291 -15.5625 -1.9375 C-9.87773895 -3.14004561 -5.21519774 -2.55839889 0 0 Z " fill="#002DCB" transform="translate(373.3125,17.625)"/>
<path d="M0 0 C3.99447656 2.35970004 6.96074985 4.62979926 8.671875 9.05859375 C10.53706945 17.71232122 8.24011431 25.1427116 5.9453125 33.47265625 C5.53200592 35.01855999 5.12012707 36.56484604 4.70956421 38.11148071 C3.83219823 41.40484722 2.9451379 44.69538217 2.0501709 47.98400879 C0.68914898 52.98595735 -0.64911053 57.9937942 -1.98339844 63.00292969 C-4.61052136 72.85171252 -7.26426208 82.69323582 -9.92072678 92.53413773 C-12.10733503 100.63739548 -14.28898833 108.74198995 -16.47098351 116.84649086 C-17.04110864 118.96408157 -17.61130064 121.08165427 -18.18155861 123.19920921 C-22.67891257 139.90088864 -27.15286059 156.60873394 -31.61328125 173.3203125 C-32.21940009 175.59071884 -32.82551987 177.86112493 -33.43164062 180.13153076 C-35.77646666 188.9158579 -38.12098832 197.70026496 -40.46136475 206.48577881 C-43.58420444 218.2076168 -46.71786955 229.92643101 -49.87176514 241.63995361 C-50.8453576 245.25749834 -51.81331075 248.87648283 -52.77667236 252.49676514 C-53.91437002 256.77066806 -55.06395336 261.04119359 -56.22288704 265.3093853 C-56.64383016 266.86742936 -57.06059756 268.4266087 -57.47280693 269.98698616 C-58.03432493 272.10976347 -58.61099015 274.22785097 -59.19165039 276.34545898 C-59.50969131 277.52873276 -59.82773224 278.71200653 -60.15541077 279.93113708 C-61.80515422 284.33076064 -64.04100672 287.125433 -67.828125 289.87109375 C-74.18806623 292.02893095 -80.68897641 292.28391274 -86.828125 289.43359375 C-92.01325297 284.50772218 -93.69765479 280.69859985 -94.28686714 273.72787476 C-94.35104823 269.57551759 -93.44089842 265.9257899 -92.31225586 261.953125 C-92.08391241 261.09647719 -91.85556896 260.23982939 -91.62030602 259.35722256 C-90.86071682 256.52385963 -90.07695707 253.6977935 -89.29296875 250.87109375 C-88.74515767 248.84677024 -88.19890453 246.82202458 -87.65409851 244.79689026 C-86.18356371 239.3470264 -84.69229738 233.90303285 -83.19733429 228.45982742 C-81.63037878 222.73960772 -80.08326915 217.01402887 -78.53466797 211.28881836 C-76.01306194 201.97386289 -73.48174482 192.66160334 -70.94384766 183.35107422 C-67.72380064 171.53346946 -64.53648185 159.70735278 -61.37109375 147.875 C-61.14144487 147.01660145 -60.911796 146.1582029 -60.67518806 145.27379227 C-59.7661391 141.87540485 -58.85723021 138.47698007 -57.94868183 135.07845879 C-56.40353971 129.30005392 -54.85296357 123.5231282 -53.29907227 117.74707031 C-53.08064132 116.93502703 -52.86221037 116.12298374 -52.6371603 115.28633308 C-52.41896665 114.47517477 -52.20077299 113.66401646 -51.97596741 112.82827759 C-48.26773706 99.04248745 -44.57860185 85.2519428 -40.9223938 71.45225525 C-39.22355398 65.04134585 -37.51721952 58.63243847 -35.80892754 52.22404194 C-34.42367419 47.02505914 -33.04793004 41.82368617 -31.67941284 36.62027454 C-30.83847405 33.43239766 -29.98823634 30.24705676 -29.13535309 27.06235695 C-28.74321119 25.59047768 -28.35492929 24.11756363 -27.97084808 22.64356041 C-27.44449905 20.62567038 -26.90438236 18.61194862 -26.36083984 16.59863281 C-26.06301605 15.47362366 -25.76519226 14.3486145 -25.45834351 13.18951416 C-23.39486846 7.47329547 -20.30684445 3.50539952 -15.328125 0.05859375 C-10.29855442 -1.61792978 -4.99156685 -2.01840203 0 0 Z " fill="#002DCB" transform="translate(440.328125,657.94140625)"/>
<path d="M0 0 C6.68289432 4.66248441 8.70381215 9.83499068 10.65136719 17.45410156 C10.90108654 18.37808872 11.15080589 19.30207588 11.4080925 20.25406265 C11.92694792 22.18040469 12.43897131 24.10859927 12.94432068 26.03852844 C13.63930996 28.69107445 14.35221799 31.33787314 15.07385254 33.98327637 C16.49056992 39.1868369 17.87892108 44.39775011 19.265625 49.609375 C19.79114815 51.57870005 20.31684944 53.54797757 20.8427124 55.51721191 C21.9610994 59.70655746 23.07840949 63.89618801 24.19482422 68.08605957 C25.96781921 74.73984866 27.74338754 81.39294926 29.51953125 88.04589844 C29.82076653 89.17425739 30.1220018 90.30261635 30.43236542 91.465168 C31.04642844 93.76528158 31.66050065 96.0653927 32.27458191 98.3655014 C33.20783709 101.8614011 34.14086523 105.35736133 35.07385254 108.85333252 C41.32100072 132.25973191 47.59093443 155.66000885 53.86540222 179.05909729 C54.93363883 183.04294155 56.00169938 187.026833 57.06973648 191.01073074 C57.58437948 192.93029828 58.09907581 194.84985151 58.61382675 196.76939011 C59.85541383 201.39938367 61.09639031 206.02953873 62.33587646 210.66009521 C64.56132797 218.97075231 66.79393351 227.27927918 69.05253601 235.58099747 C70.08360963 239.37218099 71.11085251 243.16439792 72.1378479 246.95668793 C72.62281789 248.74300076 73.10972361 250.52878937 73.59872437 252.31400299 C74.27251603 254.77412009 74.93965231 257.23595666 75.60546875 259.69824219 C75.80277588 260.41153435 76.00008301 261.12482651 76.20336914 261.85973358 C78.15621689 269.13429146 79.5633114 275.6169998 76.6875 282.875 C73.99722664 287.10257242 71.43146823 289.23617461 66.6875 290.875 C59.56216765 291.75759404 54.41202968 291.31443118 48.6875 286.875 C45.70371079 282.90127704 43.99907507 279.4033252 42.74658203 274.61035156 C42.416577 273.37056046 42.08657196 272.13076935 41.74656677 270.85340881 C41.39598751 269.49085567 41.04557503 268.1282596 40.6953125 266.765625 C40.31454837 265.31938585 39.93272934 263.87342409 39.54994202 262.42771912 C38.72636166 259.30895732 37.90973971 256.18848699 37.09848022 253.0664978 C35.79102666 248.03585228 34.46783468 243.0094298 33.1418457 237.98364258 C31.74351112 232.68133108 30.34591139 227.37883556 28.95326233 222.07502747 C24.44299245 204.90163696 19.84449659 187.75241362 15.2315979 170.60635376 C13.17927966 162.97728938 11.13167815 155.34695877 9.08402061 147.71664238 C8.62167389 145.99377991 8.15929315 144.27092657 7.69687843 142.54808235 C2.08143235 121.62618298 -3.51910618 100.70029749 -9.11639023 79.77353287 C-9.86568855 76.97231049 -10.61514738 74.1711311 -11.36465454 71.3699646 C-12.54531271 66.95733467 -13.72555144 62.54459277 -14.90546417 58.13176346 C-15.33479009 56.52628991 -15.76423191 54.92084735 -16.19380951 53.31544113 C-16.39417061 52.56660282 -16.59453171 51.81776451 -16.80096436 51.04623413 C-16.9978718 50.31037708 -17.19477924 49.57452003 -17.39765358 48.81636429 C-17.78394745 47.36952959 -18.1690211 45.92236849 -18.55280113 44.47486496 C-19.58693291 40.57466209 -20.64068551 36.68101355 -21.71871948 32.79269409 C-22.18223362 31.09545057 -22.6457051 29.39819539 -23.10913086 27.70092773 C-23.32930909 26.9219642 -23.54948732 26.14300066 -23.77633762 25.34043217 C-25.67635084 18.32111394 -26.32428348 12.2641843 -22.6953125 5.7421875 C-17.05556485 -1.87306497 -8.57758682 -2.91314269 0 0 Z " fill="#002DCB" transform="translate(543.3125,658.125)"/>
<path d="M0 0 C1.77548653 0.47858323 3.55130884 0.95592224 5.32743835 1.43211365 C10.11679386 2.71971644 14.90146568 4.02398701 19.6855011 5.33119583 C24.75143 6.71210318 29.82168765 8.07692585 34.89160156 9.44311523 C43.24955835 11.69709103 51.60526924 13.95920527 59.95947266 16.22705078 C75.2655912 20.38099938 90.58529765 24.48389899 105.90555477 28.58532429 C111.71028802 30.13976832 117.51354558 31.69963768 123.31616211 33.26196289 C140.54534069 37.89910552 157.78392575 42.4970638 175.03952026 47.03502083 C181.03151691 48.612366 187.02166622 50.19671472 193.01178741 51.78116512 C198.75860907 53.30030978 204.50835239 54.80767524 210.26055717 56.30629921 C213.8122706 57.23462243 217.3609588 58.17411757 220.9089241 59.11665344 C222.55249718 59.55079659 224.1973085 59.9802838 225.84342575 60.40467834 C245.13883898 65.38474945 245.13883898 65.38474945 249.51089478 71.4521637 C252.16110536 75.94901281 253.0967847 80.38612599 252.12109375 85.5234375 C250.2252469 91.3600896 247.63637305 94.5897783 242.12109375 97.5234375 C235.36636756 99.7750129 228.62280474 98.47814416 221.92700195 96.59350586 C221.15484061 96.38610149 220.38267927 96.17869713 219.5871191 95.96500778 C217.02902021 95.27506841 214.47560801 94.56919324 211.921875 93.86328125 C210.08676483 93.3650891 208.25136889 92.86794857 206.41571045 92.3717804 C202.48108297 91.30604792 198.54844018 90.23337683 194.61721802 89.15515137 C188.35453246 87.43759403 182.08771146 85.7354972 175.82006836 84.03613281 C169.3341299 82.2769054 162.84843049 80.51682924 156.364151 78.75149536 C137.96443519 73.74274507 119.54652619 68.80406522 101.12109089 63.89089203 C94.96099495 62.2482488 88.80184458 60.60210231 82.64331055 58.95361328 C81.77582908 58.72142593 80.90834761 58.48923859 80.01457882 58.25001526 C78.26491374 57.78169641 76.51525039 57.31337111 74.76558876 56.84503937 C62.21600722 53.4860116 49.66464201 50.13390676 37.10896206 46.79773903 C29.77142946 44.84778354 22.43549037 42.89190998 15.10064793 40.93185997 C10.77917703 39.77738137 6.45694124 38.62598012 2.13259888 37.4822998 C-1.86115269 36.42604877 -5.85268042 35.36178291 -9.84265327 34.29134941 C-11.29572936 33.90306691 -12.74960026 33.51774418 -14.20432854 33.13569832 C-34.34922555 27.84061402 -34.34922555 27.84061402 -38.87890625 20.5234375 C-41.29834825 15.45413045 -41.3121982 10.87501459 -39.87890625 5.5234375 C-38.01131765 1.64632357 -35.70397893 -0.86758028 -32.25390625 -3.4140625 C-21.42351843 -6.82362904 -10.52269072 -2.90142103 0 0 Z " fill="#002DCB" transform="translate(698.87890625,521.4765625)"/>
<path d="M0 0 C3.46526554 2.56344439 5.26895873 4.64329565 6.5 8.875 C7.10948618 14.48381583 7.27695237 19.20156412 4.875 24.375 C-0.92149422 30.47657286 -7.006602 32.14547311 -14.984375 34.2109375 C-16.73129387 34.67780975 -16.73129387 34.67780975 -18.51350403 35.15411377 C-21.06723049 35.83495741 -23.62165705 36.51161862 -26.17825317 37.18145752 C-30.34958181 38.27446064 -34.51668049 39.38303898 -38.68334961 40.49365234 C-43.96871095 41.90131668 -49.25509432 43.30503067 -54.54271221 44.70419502 C-64.99977585 47.47159128 -75.44856021 50.26917715 -85.89453125 53.078125 C-87.5522761 53.5238056 -89.21002147 53.9694843 -90.86776733 54.41516113 C-93.38474533 55.09187132 -95.90171631 55.76860751 -98.41866493 56.44542694 C-107.89892474 58.99442994 -117.38096794 61.5367733 -126.86328125 64.078125 C-127.73605335 64.31204453 -128.60882545 64.54596405 -129.5080452 64.78697205 C-151.25352612 70.61484575 -173.00143564 76.4336451 -194.75 82.25 C-196.10202955 82.61158581 -196.10202955 82.61158581 -197.48137283 82.98047638 C-199.26361547 83.45710595 -201.04586389 83.93371387 -202.82811832 84.4102993 C-204.56751992 84.87544665 -206.30690193 85.34066725 -208.04626369 85.80596352 C-212.21105924 86.91989291 -216.37626484 88.03223513 -220.54246521 89.14089966 C-227.4257082 90.97384947 -234.30636255 92.81289635 -241.17033768 94.71694756 C-243.94045608 95.48484314 -246.7126886 96.24493545 -249.48509979 97.00450516 C-251.34817471 97.51872094 -253.20789347 98.04504974 -255.06744385 98.5718689 C-269.04238964 102.39352661 -269.04238964 102.39352661 -275.98828125 100.02734375 C-280.4924721 97.02776484 -283.86183238 94.16832912 -285.5 88.875 C-286.26671556 83.91530872 -286.17829584 79.49984026 -283.8125 75 C-280.02711356 69.88461293 -276.45531359 67.52913569 -270.32958984 65.90234375 C-269.0874472 65.56596893 -267.84530457 65.22959412 -266.56552124 64.88302612 C-265.19738583 64.5259573 -263.8291892 64.16912296 -262.4609375 63.8125 C-261.01620193 63.42621491 -259.57176092 63.03882674 -258.12759399 62.65042114 C-254.2038309 61.59842363 -250.27616227 60.56174848 -246.34765625 59.52762604 C-242.16814337 58.42449699 -237.99248452 57.30696462 -233.81640625 56.19091797 C-226.83760385 54.32773189 -219.8566686 52.47275398 -212.87402344 50.62402344 C-203.17567994 48.05614243 -193.48166281 45.47227555 -183.7890625 42.8828125 C-180.73806546 42.06792766 -177.68703483 41.25316869 -174.63598633 40.43847656 C-173.88288964 40.23737526 -173.12979296 40.03627396 -172.35387516 39.82907867 C-166.99781996 38.39912773 -161.64106041 36.97183637 -156.28393555 35.54589844 C-130.35183104 28.64304201 -104.43167416 21.69604992 -78.51489258 14.73590088 C-77.67887953 14.51139063 -76.84286648 14.28688038 -75.9815197 14.05556679 C-74.32100716 13.60958025 -72.6605213 13.16349435 -71.00006294 12.71730614 C-67.00700925 11.64450097 -63.01348157 10.57353781 -59.01876831 9.50692749 C-52.325144 7.71828496 -45.63488943 5.92207103 -38.96331692 4.05257034 C-36.21997944 3.28482765 -33.47394082 2.52703216 -30.72759438 1.77013397 C-28.87832558 1.25593655 -27.03318864 0.72694872 -25.1882782 0.19732666 C-16.82013313 -2.10219679 -7.99986083 -4.38570329 0 0 Z " fill="#002DCB" transform="translate(302.5,519.125)"/>
<path d="M0 0 C4.19826665 3.19068266 6.46295531 6.38886593 8.125 11.375 C8.64379747 17.49681014 8.01665519 22.42198431 4.125 27.375 C-1.14890714 31.60309752 -6.74433572 32.99885886 -13.21875 34.67578125 C-14.37260696 34.98434052 -15.52646393 35.29289978 -16.71528625 35.61080933 C-19.2509409 36.28716329 -21.78729742 36.95930633 -24.32583618 37.62460327 C-28.47628354 38.71241804 -32.62248542 39.81586305 -36.76831055 40.92114258 C-42.86920173 42.54615214 -48.97194133 44.16405568 -55.07568359 45.77832031 C-65.15578879 48.44526717 -75.22881131 51.13845434 -85.30078125 53.8359375 C-87.0582573 54.30655188 -88.81573411 54.77716344 -90.57321167 55.24777222 C-93.242875 55.96266046 -95.91253305 56.6775684 -98.58217049 57.39255333 C-104.91949623 59.08965359 -111.25742349 60.78449334 -117.59570312 62.47802734 C-118.50177748 62.72012499 -119.40785183 62.96222263 -120.34138298 63.21165657 C-122.17799612 63.70238313 -124.01460946 64.19310896 -125.85122299 64.68383408 C-150.73416082 71.33272585 -175.61064637 78.00561217 -200.48550415 84.68466187 C-201.31041005 84.90614427 -202.13531595 85.12762667 -202.985219 85.35582066 C-204.62095823 85.7950523 -206.25667462 86.23436905 -207.89236736 86.67377377 C-211.80642538 87.72503771 -215.72092123 88.77460386 -219.63652039 89.82011414 C-226.22977775 91.58183493 -232.81978764 93.35143641 -239.39337921 95.18540478 C-242.14562431 95.9522855 -244.90032914 96.71009126 -247.65531921 97.46704292 C-249.51938476 97.98331022 -251.37972238 98.51298073 -253.23986816 99.04319763 C-269.40629599 103.47283989 -269.40629599 103.47283989 -276.75 99.75 C-281.45691722 96.17274291 -283.85835104 92.83537415 -284.8125 87 C-285.16900802 81.56096737 -284.131592 77.01562596 -280.53707886 72.80938721 C-275.48083581 68.18207845 -270.38563523 66.62471412 -263.8203125 64.984375 C-262.69862671 64.68702957 -261.57694092 64.38968414 -260.42126465 64.08332825 C-257.2867516 63.25587163 -254.14831701 62.44573165 -251.00769806 61.64183426 C-247.55895751 60.75403778 -244.11641701 59.84281609 -240.67333984 58.93334961 C-236.11549011 57.73091962 -231.55705123 56.530885 -226.99624634 55.33970642 C-214.49447141 52.07427292 -202.00988267 48.74724832 -189.53125 45.39453125 C-188.56443865 45.13482103 -187.5976273 44.87511082 -186.60151863 44.60753059 C-182.61751914 43.53723673 -178.63357544 42.46673567 -174.64973545 41.39584827 C-164.37907486 38.63523729 -154.10604801 35.88348092 -143.83282661 33.13241768 C-138.54065596 31.71519015 -133.24859241 30.29756287 -127.95654297 28.87988281 C-126.89238065 28.59480645 -125.82821833 28.30973009 -124.73180866 28.01601505 C-113.37936891 24.97462886 -102.0275655 21.93087012 -90.6758194 18.88689613 C-87.25457276 17.96949585 -83.833313 17.05214449 -80.41204834 16.1348114 C-79.29963776 15.83654355 -78.18722717 15.5382757 -77.04110718 15.23096943 C-74.81932597 14.63524964 -72.59754456 14.03953062 -70.37576294 13.44381237 C-64.94629053 11.9880072 -59.51684707 10.53209424 -54.08746338 9.07595825 C-49.02252804 7.71757556 -43.95750784 6.35950976 -38.89242363 5.00168228 C-37.03152702 4.50275754 -35.17066238 4.00371358 -33.30983162 3.5045433 C-30.77133445 2.82360188 -28.2327271 2.14307272 -25.6940918 1.46264648 C-24.9536091 1.2639071 -24.21312641 1.06516771 -23.45020485 0.86040592 C-6.87684456 -3.57952384 -6.87684456 -3.57952384 0 0 Z " fill="#002DCB" transform="translate(942.875,346.625)"/>
<path d="M0 0 C0.89563943 0.23823738 1.79127886 0.47647476 2.71405888 0.72193146 C5.67596042 1.51295621 8.63274663 2.32158801 11.58984375 3.13037109 C13.70433133 3.69883886 15.81912066 4.26618528 17.93418884 4.83248901 C23.6198039 6.35803523 29.30121168 7.89873273 34.98197556 9.44223022 C40.93809201 11.05765419 46.89803541 12.65882941 52.85766602 14.26123047 C62.51520437 16.85952736 72.17069282 19.46530135 81.82470703 22.07666016 C93.91736076 25.34710195 106.01543371 28.59690563 118.1171875 31.83349609 C118.98413553 32.06536243 119.85108356 32.29722878 120.74430275 32.53612137 C121.603636 32.76595089 122.46296925 32.99578041 123.3483429 33.23257446 C125.05799862 33.68986149 126.76764935 34.1471672 128.47729492 34.60449219 C129.72612882 34.93853656 129.72612882 34.93853656 131.00019169 35.2793293 C136.77677548 36.82519641 142.55157901 38.37758796 148.32543945 39.93359375 C151.57501885 40.80913288 154.82461119 41.68462397 158.07421875 42.56005859 C158.86816732 42.77398632 159.6621159 42.98791405 160.48012352 43.20832443 C171.46290491 46.16616453 182.45595287 49.08265467 193.4573822 51.97033691 C199.55171048 53.5704716 205.64260241 55.18350205 211.73260593 56.80001068 C216.63471407 58.10011293 221.54070365 59.38386234 226.45040321 60.65497589 C229.44954838 61.43579132 232.44424793 62.23267275 235.43793488 63.03413391 C236.81591979 63.39954642 238.1956814 63.75833712 239.5772934 64.10978699 C253.71316984 67.71265082 253.71316984 67.71265082 258.52734375 73.77880859 C261.43580325 78.86193221 261.14831918 84.05970155 260.52734375 89.77880859 C258.36796737 94.25751516 255.59781436 96.96079048 251.52734375 99.77880859 C242.22841641 102.87845104 232.82448575 99.31759494 223.76171875 96.84521484 C222.17076323 96.42005467 220.57954329 95.99588296 218.98808289 95.57261658 C214.65756472 94.41784329 210.3308987 93.24919636 206.00477219 92.07809448 C201.38304332 90.82958341 196.75785135 89.5940295 192.13305664 88.35693359 C183.27026265 85.98408012 174.41063176 83.59962973 165.55211926 81.21084785 C155.74554958 78.56685594 145.93594227 75.93423374 136.12602043 73.30271149 C123.53034841 69.92379408 110.93544258 66.5420876 98.34399414 63.14746094 C94.47283864 62.10393108 90.60166769 61.06045854 86.73046875 60.01708984 C85.29915524 59.63131145 85.29915524 59.63131145 83.83892632 59.23773956 C70.11334731 55.5394837 56.37968668 51.87263435 42.63993645 48.22739792 C36.9044004 46.7048861 31.17001878 45.17803027 25.43560123 43.65131187 C20.03529272 42.21420718 14.63306213 40.78464066 9.22926521 39.36071301 C5.9170876 38.48601469 2.60685375 37.60413409 -0.70288849 36.72027016 C-2.22460957 36.31550758 -3.74713575 35.91375717 -5.2705307 35.51534081 C-25.80353339 30.14161326 -25.80353339 30.14161326 -29.47265625 24.15380859 C-32.07235016 19.44625475 -32.26726931 15.03208385 -31.47265625 9.77880859 C-29.6791179 4.49783455 -26.86266423 1.97985608 -22.47265625 -1.22119141 C-15.01608737 -3.70671437 -7.3723869 -2.05057207 0 0 Z " fill="#002DCB" transform="translate(48.47265625,347.22119140625)"/>
<path d="M0 0 C1.11429182 -0.00382555 2.22858363 -0.00765109 3.37664187 -0.01159257 C7.11211459 -0.021915 10.84743339 -0.01793178 14.58291626 -0.01396179 C17.26044729 -0.01830869 19.93796701 -0.02342727 22.61549377 -0.02944946 C29.13455544 -0.04219343 35.65357591 -0.04399052 42.17264794 -0.0416492 C47.47230773 -0.03986548 52.77195502 -0.04161684 58.07161331 -0.04587364 C58.82616421 -0.04646883 59.5807151 -0.04706402 60.35813118 -0.04767724 C61.89105713 -0.04888901 63.42398307 -0.05010314 64.95690902 -0.05131962 C79.33026356 -0.06219408 93.70359464 -0.06003316 108.07695051 -0.05393478 C121.22087568 -0.04876617 134.36472672 -0.06001972 147.50863723 -0.07903299 C161.010261 -0.09841373 174.5118497 -0.10666695 188.01348746 -0.10290974 C195.5914279 -0.10099799 203.16930526 -0.10348265 210.74723434 -0.11762428 C217.19872017 -0.12954209 223.65010409 -0.13093855 230.10159133 -0.11883412 C233.39173376 -0.11294806 236.68165148 -0.11346797 239.97178841 -0.12383652 C243.54215624 -0.13427685 247.11202329 -0.1262244 250.68237305 -0.11352539 C252.2346232 -0.12458682 252.2346232 -0.12458682 253.81823194 -0.13587171 C260.11818297 -0.08873602 266.51816991 0.20997589 271.49000299 4.60640258 C275.6486116 9.30629082 277.21302445 13.01238345 276.84317017 19.19819641 C276.08425878 25.06885576 273.99812223 28.48496804 269.53057861 32.393013 C264.96540414 35.32024327 259.90673395 34.81249442 254.65713501 34.76863098 C253.51284719 34.77487094 252.36855938 34.78111091 251.18959618 34.78753996 C247.35255752 34.8035037 243.51615112 34.79085171 239.67910767 34.77827454 C236.92935881 34.78149356 234.17963686 34.79067108 231.42990112 34.79951477 C224.73499798 34.81729732 218.04027426 34.81346125 211.34536409 34.80186421 C205.9040864 34.79282909 200.46285897 34.79160622 195.02157593 34.79595947 C194.24702006 34.7965724 193.47246419 34.79718534 192.67443693 34.79781684 C191.1009205 34.79909575 189.52740409 34.8003926 187.9538877 34.80170721 C173.20047884 34.81311223 158.4471694 34.80000055 143.69377685 34.77850574 C131.03584253 34.76063481 118.37805496 34.76373894 105.72012329 34.78218079 C91.01935981 34.8035889 76.31868346 34.8120136 61.61790657 34.79973173 C60.05019253 34.79845754 58.48247847 34.79720006 56.9147644 34.79595947 C56.14342773 34.79534237 55.37209105 34.79472527 54.57738054 34.79408947 C49.14290485 34.79063638 43.70848446 34.796464 38.27401733 34.80587769 C31.65079368 34.81709841 25.02775964 34.81405622 18.4045577 34.79275471 C15.02544827 34.78224487 11.64691661 34.78027505 8.26776886 34.79135132 C4.60459728 34.80225299 0.94231967 34.78860646 -2.72079468 34.76863098 C-3.78869043 34.77755387 -4.85658619 34.78647676 -5.95684242 34.79567003 C-11.97903474 34.73180502 -15.44270081 34.26774577 -20.03182983 30.26069641 C-24.36815396 25.45558048 -25.33872757 21.84885219 -25.24667358 15.53804016 C-24.70067335 9.75043768 -21.34930371 5.8753257 -17.03182983 2.26069641 C-11.46533967 -0.2644729 -5.98978789 -0.02178145 0 0 Z " fill="#002DCB" transform="translate(26.031829833984375,464.7393035888672)"/>
<path d="M0 0 C4.47870656 2.15937638 7.18198188 4.92952939 10 9 C10.95993592 11.87980777 11.12782597 13.68456431 11.13422108 16.67560196 C11.13867892 17.64215879 11.14313676 18.60871562 11.14772969 19.60456204 C11.14754533 20.66884136 11.14736097 21.73312068 11.14717102 22.82965088 C11.15084771 23.9584192 11.1545244 25.08718751 11.1583125 26.25016093 C11.16937219 30.05252068 11.17319704 33.85485312 11.17700195 37.65722656 C11.18273167 40.37534317 11.18989848 43.09345567 11.19691467 45.81156921 C11.21667759 53.98246162 11.22674481 62.15335527 11.23564246 70.3242656 C11.24002541 74.17167054 11.24539218 78.01907411 11.25063133 81.86647797 C11.267643 94.6552006 11.28213754 107.44392237 11.28938007 120.23265457 C11.29128998 123.55142467 11.29321031 126.87019477 11.29516602 130.18896484 C11.29564976 131.01383246 11.2961335 131.83870007 11.2966319 132.68856367 C11.30493361 146.05323029 11.33027316 159.41780743 11.36274669 172.78243497 C11.39581116 186.50204611 11.41382825 200.22161177 11.41702431 213.94126296 C11.41918992 221.64500333 11.42794595 229.34861321 11.45348549 237.05231476 C11.4751841 243.61260733 11.48324708 250.17273773 11.47351871 256.73306212 C11.46897147 260.07989272 11.47306218 263.42611711 11.49028015 266.77294731 C11.50791211 270.40305366 11.50093466 274.03230834 11.48774719 277.66241455 C11.49871644 278.71777098 11.50968568 279.77312741 11.52098733 280.86046433 C11.46590654 287.13175347 10.70507423 290.88544749 7 296 C1.80767863 300.81239541 -2.40432122 301.35374727 -9.2734375 301.28125 C-14.37874325 300.7546282 -16.99976047 298.10837353 -20.3125 294.4375 C-22.69823839 290.99143343 -23.12534411 288.40700194 -23.13142776 284.32160473 C-23.13526891 283.3544312 -23.13911005 282.38725767 -23.1430676 281.39077586 C-23.14220112 280.32581442 -23.14133463 279.26085299 -23.14044189 278.16362 C-23.14341302 277.03414611 -23.14638414 275.90467223 -23.1494453 274.74097186 C-23.15815353 270.93627528 -23.15964234 267.13161008 -23.16113281 263.3269043 C-23.16522056 260.60716566 -23.17076313 257.88743036 -23.17617798 255.16769409 C-23.18976475 247.76481405 -23.19578652 240.36193942 -23.20018864 232.95904899 C-23.20295041 228.33755932 -23.20718764 223.71607176 -23.21169281 219.09458351 C-23.2238858 206.3015681 -23.23418514 193.50855436 -23.2375679 180.71553326 C-23.23778747 179.89661968 -23.23800703 179.07770609 -23.23823325 178.23397695 C-23.23845153 177.41309341 -23.23866981 176.59220988 -23.2388947 175.74645108 C-23.23933817 174.08300189 -23.23978473 172.4195527 -23.24023438 170.75610352 C-23.2404558 169.93097359 -23.24067723 169.10584367 -23.24090537 168.2557098 C-23.24485388 154.88391877 -23.26230934 141.51218222 -23.2855939 128.14041223 C-23.30930128 114.41515549 -23.32176947 100.6899261 -23.32293582 86.96464854 C-23.32385291 79.25705392 -23.32961384 71.54953027 -23.34775543 63.84195518 C-23.36314814 57.27908952 -23.36828181 50.71631678 -23.36001733 44.1534365 C-23.35610783 40.80479436 -23.35868328 37.45649171 -23.37107468 34.10784721 C-23.3837225 30.4775128 -23.37795596 26.84766153 -23.36749268 23.21733093 C-23.37957728 21.62992703 -23.37957728 21.62992703 -23.39190602 20.01045436 C-23.3501084 13.82630952 -22.88358557 9.08903187 -18.46484375 4.35546875 C-12.23631242 -0.4075258 -7.7938532 -0.73449925 0 0 Z " fill="#002DCB" transform="translate(490,664)"/>
<path d="M0 0 C1.11020826 -0.00382555 2.22041653 -0.00765109 3.36426747 -0.01159257 C7.08592084 -0.02191471 10.8074197 -0.01793184 14.52908325 -0.01396179 C17.19676221 -0.0183087 19.86442981 -0.02342729 22.53210449 -0.02944946 C29.02710273 -0.04219327 35.52205962 -0.04399054 42.01706825 -0.0416492 C47.29718191 -0.03986546 52.57728302 -0.04161689 57.85739517 -0.04587364 C58.98505847 -0.04676643 58.98505847 -0.04676643 60.13550285 -0.04767724 C61.6627918 -0.04888901 63.19008075 -0.05010314 64.71736969 -0.05131962 C79.03778914 -0.06219402 93.35818504 -0.06003319 107.67860581 -0.05393478 C120.77403214 -0.04876618 133.86938408 -0.06001971 146.96479569 -0.07903299 C160.41669894 -0.09841388 173.86856699 -0.10666693 187.32048428 -0.10290974 C194.87047914 -0.10099802 202.42041068 -0.10348243 209.97039413 -0.11762428 C216.39809152 -0.12954228 222.82568661 -0.13093834 229.25338541 -0.11883412 C232.53137651 -0.1129482 235.8091421 -0.11346769 239.08712769 -0.12383652 C242.64435896 -0.13427726 246.20108765 -0.12622408 249.75830078 -0.11352539 C250.78924327 -0.12089968 251.82018575 -0.12827396 252.88236892 -0.13587171 C259.60897637 -0.08536114 265.65662191 0.52134209 271.06472778 4.94429016 C271.51976685 5.52307922 271.97480591 6.10186829 272.44363403 6.69819641 C272.91671997 7.27440735 273.38980591 7.85061829 273.87722778 8.44429016 C276.3657643 12.4483368 276.39082955 16.64435021 276.00613403 21.26069641 C273.92227232 27.31975085 270.8344774 31.34652473 265.00613403 34.26069641 C263.47447449 34.35755109 261.93864985 34.39167502 260.40393448 34.39491749 C259.42830181 34.39937533 258.45266915 34.40383318 257.44747186 34.40842611 C256.36792474 34.40824174 255.28837761 34.40805738 254.17611694 34.40786743 C253.03524683 34.41154412 251.89437671 34.41522081 250.71893477 34.41900891 C247.54259001 34.42814681 244.36627561 34.43274786 241.18991995 34.43539822 C237.76785063 34.4392973 234.34579632 34.44887592 230.92373657 34.45761108 C222.65454436 34.47738702 214.38535091 34.48744326 206.11614096 34.49633887 C202.22377608 34.50072004 198.33141257 34.5060873 194.43904877 34.51132774 C181.50281685 34.52834136 168.56658578 34.54283597 155.63034439 34.55007648 C152.27220916 34.55198644 148.91407393 34.55390676 145.55593872 34.55586243 C144.30393781 34.55658804 144.30393781 34.55658804 143.02664396 34.55732831 C129.50280882 34.56563022 115.97906208 34.59096924 102.45526555 34.6234431 C88.57635917 34.65649844 74.69749774 34.67452387 60.81855178 34.67772073 C53.02372619 34.67988727 45.22902951 34.68865693 37.43424225 34.7141819 C30.79631002 34.73586814 24.158538 34.74394964 17.52057436 34.73421512 C14.13337168 34.72966416 10.74676825 34.73377467 7.35956573 34.75097656 C3.6874576 34.76858469 0.01619338 34.76164292 -3.65591431 34.7484436 C-5.26185066 34.76489747 -5.26185066 34.76489747 -6.90023017 34.78168374 C-12.91932578 34.72930456 -16.4308012 34.30864163 -20.99386597 30.26069641 C-25.18026824 24.71654204 -26.70688229 20.20600352 -25.99386597 13.26069641 C-24.17394581 8.10425596 -21.43181129 5.3933637 -16.99386597 2.26069641 C-11.41574899 -0.23587903 -5.99307713 -0.02187531 0 0 Z " fill="#002DCB" transform="translate(690.9938659667969,464.7393035888672)"/>
<path d="M0 0 C4.47870656 2.15937638 7.18198188 4.92952939 10 9 C10.95826404 11.87479211 11.12781147 13.67220487 11.13422108 16.65719128 C11.13867892 17.61964801 11.14313676 18.58210474 11.14772969 19.57372683 C11.14754533 20.63343308 11.14736097 21.69313933 11.14717102 22.78495789 C11.15084771 23.90893709 11.1545244 25.03291628 11.1583125 26.19095546 C11.16937209 29.97716171 11.17319704 33.76334054 11.17700195 37.54956055 C11.18273173 40.25620256 11.18989854 42.96284043 11.19691467 45.66947937 C11.21667822 53.80626481 11.22674526 61.94305149 11.23564246 70.07985494 C11.24002564 73.91168993 11.24539238 77.74352354 11.25063133 81.57535744 C11.26764369 94.3134657 11.28213777 107.0515731 11.28938007 119.78969097 C11.29128997 123.0953897 11.2932103 126.40108841 11.29516602 129.70678711 C11.29564976 130.5284018 11.2961335 131.35001649 11.2966319 132.19652859 C11.30493184 145.50555436 11.33026811 158.81449024 11.36274669 172.12347677 C11.39582035 185.78772213 11.41382912 199.45192182 11.41702431 213.11620742 C11.41918916 220.78812185 11.42793395 228.45990521 11.45348549 236.13178062 C11.47519672 242.66569438 11.48324089 249.19944522 11.47351871 255.73339095 C11.46897502 259.06616943 11.47304672 262.39833939 11.49028015 265.73111725 C11.50793523 269.34773703 11.50092316 272.96350394 11.48774719 276.5801239 C11.49871644 277.62867654 11.50968568 278.67722918 11.52098733 279.75755614 C11.46603605 286.00454338 10.62785949 290.80568277 7 296 C2.08551036 300.67475844 -1.94341946 301.30623664 -8.5 301.2109375 C-13.51540842 300.78776241 -16.58886286 298.68154014 -19.8125 295 C-22.53836498 291.26167089 -23.1247285 288.82040412 -23.13142776 284.32160473 C-23.13526891 283.3544312 -23.13911005 282.38725767 -23.1430676 281.39077586 C-23.14220112 280.32581442 -23.14133463 279.26085299 -23.14044189 278.16362 C-23.14341302 277.03414611 -23.14638414 275.90467223 -23.1494453 274.74097186 C-23.15815353 270.93627528 -23.15964234 267.13161008 -23.16113281 263.3269043 C-23.16522056 260.60716566 -23.17076313 257.88743036 -23.17617798 255.16769409 C-23.18976475 247.76481405 -23.19578652 240.36193942 -23.20018864 232.95904899 C-23.20295041 228.33755932 -23.20718764 223.71607176 -23.21169281 219.09458351 C-23.2238858 206.3015681 -23.23418514 193.50855436 -23.2375679 180.71553326 C-23.23778747 179.89661968 -23.23800703 179.07770609 -23.23823325 178.23397695 C-23.23845153 177.41309341 -23.23866981 176.59220988 -23.2388947 175.74645108 C-23.23933817 174.08300189 -23.23978473 172.4195527 -23.24023438 170.75610352 C-23.2404558 169.93097359 -23.24067723 169.10584367 -23.24090537 168.2557098 C-23.24485388 154.88391877 -23.26230934 141.51218222 -23.2855939 128.14041223 C-23.30930128 114.41515549 -23.32176947 100.6899261 -23.32293582 86.96464854 C-23.32385291 79.25705392 -23.32961384 71.54953027 -23.34775543 63.84195518 C-23.36314814 57.27908952 -23.36828181 50.71631678 -23.36001733 44.1534365 C-23.35610783 40.80479436 -23.35868328 37.45649171 -23.37107468 34.10784721 C-23.3837225 30.4775128 -23.37795596 26.84766153 -23.36749268 23.21733093 C-23.37957728 21.62992703 -23.37957728 21.62992703 -23.39190602 20.01045436 C-23.3501084 13.82630952 -22.88358557 9.08903187 -18.46484375 4.35546875 C-12.23631242 -0.4075258 -7.7938532 -0.73449925 0 0 Z " fill="#002DCB" transform="translate(490,0)"/>
<path d="M0 0 C1.02609375 -0.03738281 2.0521875 -0.07476563 3.109375 -0.11328125 C10.34556987 0.86774517 15.32861725 7.1070167 20.24713135 12.05566406 C21.03488882 12.84030155 21.82264629 13.62493904 22.6342752 14.43335342 C25.2690971 17.06020662 27.89672276 19.69414038 30.52441406 22.328125 C32.41324245 24.21424308 34.30245615 26.09996791 36.19213867 27.98522949 C40.78835057 32.57255754 45.37915062 37.16526472 49.96802023 41.75993633 C53.69702448 45.49345993 57.42797939 49.22502371 61.16033173 52.9552002 C61.6918107 53.4863727 62.22328967 54.01754521 62.77087407 54.56481385 C63.85059293 55.64389326 64.93031628 56.72296819 66.01004407 57.80203867 C76.12886501 67.91515955 86.24155178 78.03439647 96.35214588 88.15574121 C105.02914566 96.84168137 113.71138303 105.5223572 122.39746094 114.19921875 C132.4860359 124.27709424 142.57136315 134.35820156 152.65151763 144.44449997 C153.72598467 145.51960411 154.80045589 146.59470407 155.87493134 147.6697998 C156.40358916 148.19876618 156.93224698 148.72773255 157.47692473 149.2727282 C161.2042104 153.0017414 164.93381321 156.72842739 168.66431427 160.45422363 C173.20833747 164.99264183 177.74878846 169.53459765 182.28467634 174.08114719 C184.59936852 176.4011004 186.91617097 178.71887364 189.23625946 181.03343201 C191.74908278 183.54081605 194.25570525 186.05423709 196.76080322 188.56933594 C197.86651873 189.66835928 197.86651873 189.66835928 198.99457192 190.78958511 C199.99821271 191.80104914 199.99821271 191.80104914 201.02212906 192.83294678 C201.60136761 193.41251003 202.18060616 193.99207329 202.77739739 194.58919907 C206.71634286 199.19871719 206.67679866 203.52634398 206.5625 209.3984375 C206.13673049 213.36873819 204.99095213 215.42728723 202.25 218.3125 C196.84407541 222.39452469 193.02871634 223.76441442 186.25 223.3125 C179.7049644 221.21050317 175.82913605 217.45537054 171.0566864 212.62039185 C170.2599074 211.82914724 169.4631284 211.03790264 168.64220458 210.22268093 C165.97803423 207.57211054 163.3283792 204.90749493 160.6784668 202.24267578 C158.77020414 200.33819646 156.86117495 198.43451496 154.95118713 196.5317688 C150.30614985 191.90065014 145.6719059 187.25887446 141.04136243 182.61326851 C135.64809261 177.20312482 130.24478992 171.80304782 124.84120748 166.40320764 C115.2010437 156.76891971 105.57093011 147.12464696 95.94604492 137.47509766 C86.6065977 128.11172048 77.25876418 118.75681691 67.90209961 109.41064453 C57.71079873 99.23075132 47.52425475 89.04614157 37.34587795 78.85332477 C36.26075277 77.76667376 35.17562485 76.68002548 34.09049416 75.59337997 C33.28965758 74.79140667 33.28965758 74.79140667 32.47264248 73.97323189 C28.70952794 70.20537415 24.94312482 66.44082303 21.17551231 62.67746353 C16.58553669 58.09241294 12.00105276 53.50195321 7.42347088 48.9045278 C5.08772111 46.55890278 2.74885548 44.21654517 0.40503311 41.87898254 C-2.13417544 39.34570729 -4.66400618 36.80342716 -7.19160461 34.25857544 C-7.93584806 33.52034204 -8.68009151 32.78210863 -9.44688779 32.02150452 C-10.12233174 31.33762063 -10.79777568 30.65373675 -11.49368763 29.9491291 C-12.07845963 29.36332797 -12.66323164 28.77752684 -13.265724 28.17397416 C-17.0932422 23.37377108 -17.40658624 18.20093212 -16.75 12.3125 C-14.02654092 4.44472932 -8.20305673 0.19385333 0 0 Z " fill="#002DCB" transform="translate(623.75,605.6875)"/>
<path d="M0 0 C2.84320998 2.4107128 5.44910555 5.03999884 8.07305908 7.68537903 C9.26694595 8.87118758 9.26694595 8.87118758 10.48495173 10.08095187 C13.14982093 12.7315147 15.80384414 15.39267541 18.45800781 18.05395508 C20.36634229 19.95658749 22.2752483 21.85863055 24.18484497 23.75999451 C28.83140295 28.38936773 33.46975671 33.02687742 38.10510734 37.66746978 C41.87249416 41.43889946 45.64261545 45.20757466 49.41469574 48.97430992 C49.95172544 49.51059119 50.48875513 50.04687247 51.04205845 50.59940469 C52.13305237 51.68886712 53.22404971 52.77832612 54.31505045 53.86778172 C64.54235373 64.0813616 74.76005849 74.30450171 84.97476301 84.53067949 C94.32065602 93.88650885 103.67794372 103.23084466 113.04075661 112.5697389 C122.6559582 122.16056193 132.26375928 131.75873939 141.86345172 141.36508673 C147.25250086 146.75763032 152.64438389 152.14726392 158.04392242 157.52930641 C162.63934057 162.11001833 167.22767657 166.6976827 171.80701593 171.29447082 C174.14352321 173.63950272 176.48418322 175.98010179 178.83150864 178.31431198 C181.37530619 180.8449767 183.90651802 183.38759293 186.43487549 185.93367004 C187.55226384 187.03665089 187.55226384 187.03665089 188.69222569 188.16191417 C193.43097875 192.96945913 195.61541838 196.53876545 196.375 203.375 C195.77114203 209.2122937 193.68729457 213.39501249 189.4375 217.4375 C185.8193723 219.75681263 182.90693572 220.2016158 178.6875 220.3125 C177.30111328 220.36857422 177.30111328 220.36857422 175.88671875 220.42578125 C168.84319858 219.38688585 163.81275717 213.10508187 159.00959778 208.29048157 C158.22254587 207.50937191 157.43549397 206.72826225 156.62459201 205.9234826 C153.9921022 203.30831772 151.36678994 200.68606683 148.74145508 198.0637207 C146.85421915 196.18574436 144.96661259 194.30814686 143.07859802 192.43095398 C137.953536 187.3329927 132.83598026 182.2275409 127.72004533 177.1204226 C124.52396526 173.9298764 121.32641707 170.74080434 118.1286068 167.55199242 C109.26936983 158.71712811 100.41201971 149.88038175 91.56157398 141.03670979 C90.99575803 140.47133297 90.42994208 139.90595615 89.8469802 139.3234467 C88.99627764 138.47339898 88.99627764 138.47339898 88.12838918 137.60617858 C86.97923195 136.45790827 85.83007162 135.30964107 84.6809082 134.16137695 C84.11089011 133.59180172 83.54087201 133.02222648 82.95358064 132.43539139 C73.71329963 123.20300947 64.45958539 113.98421842 55.200007 104.77119479 C45.68624913 95.30488357 36.18380123 85.82734149 26.69257087 76.3384425 C21.36616598 71.01386961 16.03504642 65.69421707 10.69141579 60.38692665 C6.14252102 55.8688599 1.60407519 51.34061352 -2.92117497 46.79885969 C-5.22899714 44.48323451 -7.54293182 42.17437627 -9.86705399 39.87509537 C-12.38900401 37.37852788 -14.89173516 34.86413085 -17.39054871 32.34443665 C-18.49189495 31.26725961 -18.49189495 31.26725961 -19.61549062 30.16832143 C-24.06640302 25.62999588 -26.96295056 21.37520603 -28 15 C-27.70952905 8.93668747 -25.76922912 4.74352639 -21.5625 0.375 C-15.22329213 -5.20350293 -6.79370509 -3.96305899 0 0 Z " fill="#002DCB" transform="translate(165,139)"/>
</svg>
